<svg width="77" height="70" viewBox="0 0 77 70" fill="none" xmlns="http://www.w3.org/2000/svg">
<path d="M60.5451 38.577L46.2 50.05H26.95V46.2H42.6002C42.9484 46.1998 43.2901 46.1052 43.5888 45.9262C43.8874 45.7472 44.132 45.4906 44.2963 45.1836C44.4607 44.8766 44.5387 44.5308 44.5221 44.183C44.5054 43.8352 44.3948 43.4984 44.2018 43.2085L40.7831 38.0803C40.0817 37.0247 39.13 36.159 38.0129 35.5605C36.8958 34.962 35.6479 34.6492 34.3805 34.65H3.85C2.82892 34.65 1.84965 35.0556 1.12764 35.7776C0.405624 36.4997 0 37.4789 0 38.5V61.6C0 63.6422 0.811247 65.6007 2.25528 67.0447C3.69931 68.4888 5.65783 69.3 7.7 69.3H44.8102C46.4564 69.3004 48.0838 68.9488 49.5831 68.2689C51.0824 67.5889 52.4191 66.5963 53.5034 65.3576L77 38.5L71.4098 36.6366C69.5809 36.027 67.6283 35.8851 65.7305 36.2241C63.8327 36.563 62.0499 37.372 60.5451 38.577ZM66.4433 16.9015C68.1796 15.1112 69.2538 12.6357 69.2538 9.9022C69.2538 7.1687 68.1796 4.69315 66.4433 2.9029C65.5652 1.98652 64.511 1.25701 63.3439 0.758172C62.1769 0.259334 60.9211 0.00145005 59.6519 2.48003e-07C59.6519 2.48003e-07 54.8625 -0.0115505 50.05 4.9511C45.2375 -0.0115505 40.4481 2.48003e-07 40.4481 2.48003e-07C39.1793 0.00161378 37.9239 0.259194 36.7569 0.757324C35.59 1.25545 34.5355 1.9839 33.6567 2.89905C31.9203 4.69315 30.8462 7.16485 30.8462 9.89835C30.8462 12.6319 31.9203 15.1112 33.6567 16.8976L50.05 34.65L66.4433 16.9015Z" fill="#00609E"/>
</svg>
