<svg width="77" height="77" viewBox="0 0 77 77" fill="none" xmlns="http://www.w3.org/2000/svg">
<path fill-rule="evenodd" clip-rule="evenodd" d="M25.1347 0.223596C22.4417 0.946616 20.2734 2.79796 19.1798 5.30792L18.7465 6.30275H17.0406C16.1023 6.30275 15.0347 6.3783 14.6679 6.47071C13.8615 6.67374 13.0069 7.54425 12.8635 8.30881C12.8099 8.59432 12.7892 10.2068 12.8174 11.8923C12.8674 14.8816 12.879 14.9788 13.29 15.8597C13.8218 16.9995 14.8667 18.0809 16.0292 18.6943L16.9322 19.1708H27.2449H37.5576L38.5605 18.677C40.2334 17.8536 41.3295 16.3868 41.677 14.507C41.8894 13.3584 41.8871 8.95944 41.6737 8.19112C41.4625 7.43032 40.713 6.68081 39.9522 6.46966C39.625 6.37875 38.5593 6.3041 37.5842 6.30365C36.0287 6.3029 35.8006 6.27039 35.7256 6.03937C35.3297 4.81803 34.6191 3.72025 33.501 2.60201C32.1868 1.28796 31.0624 0.627398 29.4301 0.210653C28.3094 -0.0754552 26.2252 -0.069134 25.1347 0.223596ZM6.62271 9.85208C6.16743 9.97218 5.35471 10.2834 4.81666 10.5436C3.47552 11.1925 1.57827 13.09 0.931106 14.43C-0.0537914 16.4691 0.000540532 15.0622 0.000540532 38.5106C0.000540532 61.9797 -0.0542428 60.574 0.939233 62.5912C1.52228 63.7747 3.30455 65.6309 4.51566 66.3157C4.97093 66.5732 5.85002 66.924 6.46919 67.0956C7.56125 67.398 7.92923 67.4073 18.7729 67.4073C24.9207 67.4073 29.9508 67.3807 29.9508 67.348C29.9508 67.3155 29.6817 66.6098 29.3527 65.7798C28.3217 63.1791 27.6361 60.2195 27.4494 57.5659L27.3483 56.127L19.254 56.0857C11.3636 56.0453 11.149 56.0364 10.7349 55.7354C10.0686 55.2511 9.58297 54.1508 9.70819 53.4094C9.81535 52.7752 10.3325 52.0338 10.8907 51.7138C11.13 51.5769 13.3261 51.5097 19.4076 51.4539L27.6022 51.3787L27.8684 50.0225C28.015 49.2766 28.3303 48.0087 28.5692 47.205L29.0037 45.7439L20.1836 45.7016C11.6703 45.661 11.3463 45.649 10.8641 45.3585C10.2473 44.9869 9.82588 44.328 9.70412 43.5455C9.57123 42.6911 10.1126 41.7246 10.9813 41.2652L11.6367 40.9186H21.5139H31.391L31.672 40.4295C32.1697 39.563 33.4572 37.8661 34.578 36.5993C35.1786 35.9207 35.6699 35.328 35.6699 35.2824C35.6699 35.2368 30.2146 35.1995 23.5469 35.1995C10.2766 35.1995 10.9822 35.2466 10.1916 34.3071C9.61096 33.6171 9.52894 32.7839 9.95742 31.9296C10.1514 31.543 10.5012 31.0879 10.7349 30.918C11.1553 30.6124 11.3258 30.6084 26.8388 30.5339C41.6519 30.4628 42.5457 30.4434 43.0215 30.1839C43.9602 29.6718 46.9498 28.5845 48.5001 28.1914C50.1538 27.7721 52.7533 27.381 53.9185 27.3763L54.6334 27.3733L54.6309 22.5195C54.6288 18.8363 54.5749 17.4117 54.4071 16.6123C53.5733 12.6415 49.9017 9.61383 45.9202 9.61383H44.8507V12.2636C44.8507 14.1929 44.7858 15.1647 44.6121 15.8381C43.8265 18.8832 41.3727 21.3208 38.3021 22.1061C37.1864 22.3915 36.6296 22.4067 27.317 22.4067C18.0404 22.4067 17.4439 22.3906 16.3447 22.1094C14.7388 21.6987 13.4974 20.9996 12.3295 19.8481C11.195 18.7297 10.6661 17.8923 10.1174 16.3456C9.76929 15.364 9.72489 14.982 9.66409 12.4358L9.59651 9.61383L8.52357 9.62377C7.9333 9.62918 7.07798 9.73198 6.62271 9.85208ZM52.3006 33.8517C48.7641 34.3991 44.9979 35.9993 42.197 38.1445C40.6844 39.3031 38.4317 41.694 37.4397 43.1938C35.7991 45.6741 34.6992 48.2724 34.0705 51.1529C33.8519 52.1548 33.7914 53.0685 33.7914 55.367C33.7914 57.6655 33.8519 58.5792 34.0705 59.5811C34.5202 61.6415 35.1629 63.4223 36.1297 65.287C39.2325 71.271 44.5723 75.2463 51.5481 76.7658C52.9925 77.0805 58.0122 77.0289 59.6001 76.683C61.604 76.2466 63.4394 75.5825 65.3278 74.6107C71.1452 71.6171 75.2668 66.1708 76.702 59.5811C77.0996 57.7553 77.0993 52.9758 76.7014 51.1529C75.2284 44.404 71.001 38.9339 64.908 35.8927C63.3259 35.103 61.7843 34.557 59.9145 34.1238C58.427 33.7793 53.83 33.615 52.3006 33.8517ZM64.3554 45.9564C65.1497 46.1923 65.8642 46.8194 66.2806 47.6462C66.5645 48.2096 66.5973 49.3906 66.349 50.1031C66.1541 50.6619 54.7486 63.8136 53.9821 64.3634C53.2228 64.9077 52.437 65.0601 51.4736 64.8495C50.6624 64.6721 50.5667 64.5905 46.9034 60.9584C44.5011 58.5762 43.0612 57.0328 42.8807 56.6463C41.9396 54.6303 43.508 52.2064 45.7537 52.2064C46.8449 52.2064 47.391 52.5764 49.7052 54.8824C51.4161 56.5876 51.9745 57.0611 52.1381 56.9461C52.255 56.8639 54.3269 54.5279 56.7423 51.7549C59.1577 48.9819 61.3029 46.5845 61.5093 46.4272C61.9428 46.0972 62.8455 45.751 63.2976 45.7414C63.4689 45.7378 63.9448 45.8345 64.3554 45.9564Z" fill="#00609E"/>
</svg>
