<svg width="78" height="68" viewBox="0 0 78 68" fill="none" xmlns="http://www.w3.org/2000/svg">
<path fill-rule="evenodd" clip-rule="evenodd" d="M13.0485 1.43168C0.828481 5.24368 -3.54452 18.6877 3.09548 32.0287C6.72848 39.3277 23.3535 56.6417 33.1755 63.3547L38.9055 67.2707L44.6555 63.3547C54.4975 56.6517 71.1155 39.3447 74.7345 32.0287C79.6765 22.0397 78.9205 13.1097 72.5385 6.09367C65.6075 -1.52633 51.5895 -1.76232 42.9935 5.59568L38.9055 9.09467L34.8465 5.62068C30.9215 2.26068 24.4715 -0.132325 19.7125 0.00567532C18.4435 0.0426753 15.4445 0.683676 13.0485 1.43168ZM55.3915 21.5407L57.1485 26.1417L64.7775 25.7907C71.8565 25.4637 72.4055 25.5827 72.4055 27.4387C72.4055 29.0007 71.8585 29.3607 69.9055 29.0797C68.5305 28.8827 64.7125 28.5937 61.4215 28.4377C55.9525 28.1787 55.3405 27.9177 54.3155 25.4087C52.9425 22.0497 52.6345 22.5477 50.4345 31.6887C49.4755 35.6757 48.2975 38.9387 47.8185 38.9387C47.3385 38.9387 45.9615 37.0257 44.7585 34.6887L42.5705 30.4387L40.0065 40.1947C38.5965 45.5607 36.9845 49.8037 36.4245 49.6227C35.8635 49.4417 33.4155 44.0417 30.9835 37.6217C28.5515 31.2017 26.3015 26.2037 25.9835 26.5147C25.6655 26.8257 24.6925 29.1857 23.8215 31.7597L22.2385 36.4387L16.3215 37.1017C10.0995 37.7987 8.24148 37.1127 9.24748 34.4897C9.72748 33.2377 10.7485 33.0417 14.1305 33.5497C16.4815 33.9037 18.7995 34.2487 19.2805 34.3157C19.7615 34.3837 21.2695 31.1537 22.6305 27.1387C23.9915 23.1237 25.5685 19.9927 26.1355 20.1817C26.7015 20.3707 29.0285 25.5397 31.3055 31.6687C33.5815 37.7967 35.7185 43.0847 36.0525 43.4187C36.3865 43.7527 37.6655 39.9567 38.8945 34.9827C40.2575 29.4677 41.6285 25.9387 42.4085 25.9387C43.1125 25.9387 44.4765 27.8517 45.4385 30.1887L47.1895 34.4387L49.0815 26.9387C52.1495 14.7767 52.6455 14.3517 55.3915 21.5407Z" fill="#00609E"/>
</svg>
