<svg width="69" height="68" viewBox="0 0 69 68" fill="none" xmlns="http://www.w3.org/2000/svg">
<path fill-rule="evenodd" clip-rule="evenodd" d="M28.9604 0.309684C18.0004 1.69768 7.75135 9.43069 2.86035 20.0037C-1.01665 28.3847 -0.947648 39.2957 3.03835 47.9337C6.38935 55.1987 13.3534 62.2197 20.3964 65.4367C27.1704 68.5307 41.1404 68.5307 47.9144 65.4367C54.9574 62.2197 61.9213 55.1987 65.2723 47.9337C69.2583 39.2957 69.3273 28.3847 65.4503 20.0037C58.9913 6.04068 44.6844 -1.68032 28.9604 0.309684ZM50.9314 19.5717L55.7074 23.8537L53.1324 28.4617C50.8983 32.4597 50.7294 33.3517 51.8563 35.1997C52.9953 37.0667 52.8774 37.5577 50.9054 39.1747C49.6684 40.1897 48.6554 41.3037 48.6554 41.6507C48.6554 42.5767 44.3964 48.4717 42.6554 49.9547C39.0314 53.0437 38.0254 53.1357 34.4544 50.7097C31.7284 48.8567 30.6644 48.5867 29.7284 49.5087C28.7934 50.4307 28.2544 50.3527 27.3384 49.1637C26.6874 48.3187 25.3674 47.7887 24.4054 47.9867C21.5714 48.5687 22.3014 44.9127 25.6624 41.6937C27.9294 39.5207 28.9514 39.0957 29.8194 39.9637C30.6874 40.8317 30.6244 41.5557 29.5634 42.9077C28.2754 44.5467 28.3074 44.5807 29.9294 43.3067C32.0574 41.6377 33.1554 42.5007 33.1554 45.8417C33.1554 49.0127 37.9584 52.2967 39.8414 50.4137C40.8083 49.4467 40.3384 48.5657 37.6114 46.2347C33.4404 42.6697 34.6624 42.2047 39.1684 45.6417C41.5714 47.4747 42.6564 47.7987 43.5144 46.9407C44.3724 46.0827 43.8594 44.9737 41.4604 42.4987C37.7754 38.6967 38.3774 38.1947 42.7474 41.4257C45.3014 43.3147 45.8954 43.4297 46.6644 42.1857C47.3034 41.1517 46.8454 39.9637 45.1124 38.1547C41.8624 34.7627 41.9714 33.5167 45.2904 36.1267C46.7394 37.2667 48.5724 38.1997 49.3634 38.1997C52.0704 38.1997 50.1604 34.9267 44.6444 30.1137C39.1934 25.3567 39.0864 25.3157 34.7354 26.2927C29.3454 27.5037 27.4004 26.2437 30.0834 23.2787C31.0624 22.1967 32.8294 21.1227 34.0094 20.8917C35.3044 20.6387 34.7664 20.4237 32.6554 20.3497C26.8014 20.1447 24.8274 21.1967 22.1794 25.9357C19.2624 31.1547 18.8444 34.4477 21.2154 33.5387C22.2474 33.1417 22.9564 33.6367 23.3134 35.0007C23.6404 36.2507 24.4034 36.8497 25.2544 36.5237C27.7634 35.5607 26.7964 39.6907 23.8504 42.5127C22.3084 43.9907 20.7334 45.1997 20.3504 45.1997C19.0154 45.1997 19.6694 41.8407 21.4054 39.7787C23.1294 37.7307 23.1244 37.7257 21.0764 39.4497C17.1474 42.7577 15.1404 40.6537 17.9054 36.1257C19.2184 33.9747 18.9924 33.6527 13.9924 30.5657C12.2354 29.4807 12.2614 29.2347 14.5914 24.8957C15.9304 22.4007 17.8084 19.3227 18.7644 18.0547C20.3874 15.9037 20.6234 15.8597 22.3284 17.3897C23.6604 18.5847 26.5274 19.1087 32.9144 19.3237C40.9904 19.5957 41.7944 19.4457 43.2214 17.4087C44.0724 16.1937 45.0804 15.2197 45.4624 15.2447C45.8434 15.2687 48.3044 17.2167 50.9314 19.5717ZM44.2134 18.9087C43.7494 20.1187 44.6674 21.5587 47.3563 23.8377C50.6324 26.6147 51.3534 26.8637 52.5974 25.6507C53.8484 24.4307 53.5164 23.7817 50.0974 20.7637C45.5404 16.7397 45.0994 16.6007 44.2134 18.9087ZM17.3144 23.0847C14.2664 28.6847 14.0904 29.7687 16.1024 30.5407C18.1524 31.3277 23.9454 21.2537 22.4674 19.4737C20.7854 17.4457 20.1354 17.9007 17.3144 23.0847Z" fill="#00609E"/>
</svg>
